<?xml version="1.0" encoding="utf-8"?>
<!-- Generator: Adobe Illustrator 24.1.0, SVG Export Plug-In . SVG Version: 6.00 Build 0)  -->
<svg version="1.1" id="Layer_1" xmlns="http://www.w3.org/2000/svg" xmlns:xlink="http://www.w3.org/1999/xlink" x="0px" y="0px"
	 viewBox="0 0 414 126" style="enable-background:new 0 0 414 126;" xml:space="preserve">
<style type="text/css">
	.st0{fill:#FAFAFA;}
	.st1{fill:#EFEFEF;}
	.st2{fill:#FFFFFF;}
	.st3{display:none;}
	.st4{display:inline;fill:#FF4F5B;}
	.st5{fill:#FFC529;}
	.st6{display:inline;fill:#FAFAFA;}
	.st7{display:inline;fill:#FFC529;}
	.st8{fill:none;}
</style>
<g>
	<path class="st0" d="M16,126H0v-15.5c0.2,0,0.3,0,0.5,0c0.5,0,1.1,0,1.7,0.1c1,0,2,0.1,3,0.1c0.5,0,1.1,0,1.7,0.1
		c2.6,0.1,5.3,0.2,8.2,0.3L16,126z"/>
</g>
<g>
	<path class="st0" d="M14.9,108.3c-5.2-0.2-10.3-0.4-14.9-0.6V0h8L14.9,108.3z"/>
</g>
<polyline class="st0" points="249.8,37.5 249.3,34.7 242.9,0 160.5,0 181.7,36.3 178.2,38.4 155.8,0 96.6,0 99.5,40.7 99.7,42.7 
	100.2,47.2 "/>
<polyline class="st0" points="206.5,41.1 206.1,37.5 208.9,37.2 209.2,40.9 "/>
<polyline class="st0" points="156,43.7 156.3,41.4 160.4,41.9 160.2,43.5 "/>
<path class="st0" d="M151.1,1.1l18,33.9l-64.8,4.4l-2.4-38.3C101.9,1.1,149.3,1.4,151.1,1.1z"/>
<g>
	<path class="st0" d="M25.2,111.5V126h-6.4l-0.9-14.8C20.2,111.3,22.7,111.4,25.2,111.5z"/>
</g>
<g>
	<polyline class="st0" points="253.9,37.2 253.4,34.5 247.1,0 281.5,0 281.7,0.9 318.5,0.9 316.3,31.3 316,35.4 	"/>
	<path class="st0" d="M272.2,66.2"/>
</g>
<g>
	<path class="st0" d="M391.8,38.3L397.4,0h-5.1L386,44l28-1.3V38L391.8,38.3z M398.7,0L414,2.6V0H398.7z"/>
</g>
<g>
	<path class="st0" d="M414,44.1v51.2l-52.1,0.9l-0.7-17.5l0,0l-0.1-3.4l0,0l-0.2-6.3l0,0l-0.2-3.4l0,0l-0.8-19.9
		c10.3-0.1,20-0.2,25.4-0.3h0.6l0,0L414,44.1z"/>
</g>
<g>
	<polygon class="st0" points="98.1,40 44,39.6 42.1,0 95.2,0 	"/>
</g>
<g>
	<path class="st1" d="M58,126h41.1H26.5v-14.5c9.7,0.4,19.4,0.7,26.7,1c0.5,0,0.9,0,1.3,0c0.5,0,1,0,1.5,0.1c0.3,0,0.5,0,0.8,0
		c0.2,0,0.5,0,0.7,0s0.4,0,0.6,0c0.6,0,1.2,0,1.7,0c0.2,0,0.4,0,0.6,0c0.3,0,0.5,0,0.8,0c0.4,0,0.8,0,1.2,0c2.2,0,3.2,0,3.7-0.2
		c0.1,0,0.1,0,0.2-0.1c0.1,0,0.1-0.1,0.2-0.1c0.1-0.1,0.2-0.2,0.3-0.4l-1.3-0.7l-0.1-1.3c-0.2,0-0.7,0-1.6,0c-0.1,0-0.2,0-0.3,0
		c-0.2,0-0.4,0-0.7,0h-0.3c-0.2,0-0.5,0-0.7,0c-0.9,0-1.9-0.1-3.1-0.1c-0.3,0-0.6,0-0.9,0c-0.2,0-0.4,0-0.5,0c-0.3,0-0.6,0-1,0
		c-0.8,0-1.6,0-2.5-0.1c-0.4,0-0.8,0-1.2,0c-0.5,0-0.9,0-1.4,0c-0.4,0-0.8,0-1.3,0s-1.1,0-1.7-0.1c-0.4,0-0.7,0-1.1,0
		c-0.1,0-0.2,0-0.3,0c-0.4,0-0.8,0-1.2,0c-0.5,0-1.1,0-1.6-0.1c-0.8,0-1.5-0.1-2.3-0.1c-2.1-0.1-4.2-0.2-6.4-0.2
		c-0.8,0-1.6-0.1-2.4-0.1c-2-0.1-4-0.2-6.1-0.2l29.3-61.2l40-2.1l2.2-0.1l0.4,4.1l0,0L58,126z"/>
</g>
<g>
	<polygon class="st0" points="146,126 115.8,126 145.8,123.5 	"/>
</g>
<g>
	<path class="st0" d="M98.4,43.3l-0.2-1.9L42.6,41L40.7,0H10.8l6.9,108.4c2.7,0.1,5.3,0.2,8,0.3l29.9-62.5L97.5,44h1L98.4,43.3z
		 M23.3,99.5L18,1.1h19.1l4.2,59.6L23.3,99.5z"/>
</g>
<g>
	<path class="st1" d="M390.9,0l-6.3,44c-21.7,0.3-52.4,0.5-62.4,0.2L325.5,0H390.9z"/>
</g>
<g>
	<path class="st0" d="M322.1,45.6l-3.8,51.3l42.2-0.7l-2.1-50.5C344.2,45.7,328.9,45.8,322.1,45.6z"/>
</g>
<g>
	<path class="st2" d="M160.5,0h-4.8l22.4,38.4l3.6-2.1L160.5,0z M0,110.5c0.2,0,0.3,0,0.5,0c0.5,0,1.1,0,1.7,0.1c1,0,2,0.1,3,0.1
		c0.5,0,1.1,0,1.7,0.1c2.6,0.1,5.3,0.2,8.2,0.3L16,126h2.8l-0.9-14.8c2.4,0.1,4.9,0.2,7.4,0.3V126h1.4v-14.5
		c9.7,0.4,19.4,0.7,26.7,1c0.5,0,0.9,0,1.3,0c0.5,0,1,0,1.5,0.1c0.3,0,0.5,0,0.8,0c0.2,0,0.5,0,0.7,0s0.4,0,0.6,0c0.6,0,1.2,0,1.7,0
		c0.2,0,0.4,0,0.6,0c0.3,0,0.5,0,0.8,0c0.4,0,0.8,0,1.2,0c2.2,0,3.2,0,3.7-0.2c0.1,0,0.1,0,0.2-0.1c0.1,0,0.1-0.1,0.2-0.1
		c0.1-0.1,0.2-0.2,0.3-0.4l-1.3-0.7l-0.1-1.3c-0.2,0-0.7,0-1.6,0c-0.1,0-0.2,0-0.3,0c-0.2,0-0.4,0-0.7,0h-0.3c-0.2,0-0.5,0-0.7,0
		c-0.9,0-1.9-0.1-3.1-0.1c-0.3,0-0.6,0-0.9,0c-0.2,0-0.4,0-0.5,0c-0.3,0-0.6,0-1,0c-0.8,0-1.6,0-2.5-0.1c-0.4,0-0.8,0-1.2,0
		c-0.5,0-0.9,0-1.4,0c-0.4,0-0.8,0-1.3,0s-1.1,0-1.7-0.1c-0.4,0-0.7,0-1.1,0c-0.1,0-0.2,0-0.3,0c-0.4,0-0.8,0-1.2,0
		c-0.5,0-1.1,0-1.6-0.1c-0.8,0-1.5-0.1-2.3-0.1c-2.1-0.1-4.2-0.2-6.4-0.2c-0.8,0-1.6-0.1-2.4-0.1c-2-0.1-4-0.2-6.1-0.2l29.3-61.2
		l40-2.1l2.2-0.1l0.4,4.1l0,0l7.7,75.9l9.2,0.6l29.9-2.5l0.3,2.5h4.1l-0.3-2.8l26.8-2.2l0.6,5h4.1l-0.7-5.3l33.1-2.7l0.8,8h2.8
		l-0.8-8.3l35.2-2.9l16.2,2.8l-0.6,8.4h4.1l0.5-7.7l37.2,6.4l-0.1,1.2h6.9l2-27.8l42.4-0.7l1.2,28.5h1.4l-1.2-28.5l52.1-0.9v-1.4
		L361.7,96L361,78.5l0,0l-0.1-3.4l0,0l-0.2-6.3l0,0l-0.2-3.4l0,0l-0.8-19.9c10.3-0.1,20-0.2,25.4-0.3h0.6l0,0l28.2-1.3v-1.4L386,44
		l6.3-44h-1.4l-6.3,44c-21.7,0.3-52.4,0.5-62.4,0.2L325.5,0h-44l0.2,0.9h36.9l-2.2,30.4l-0.3,4.1l-4.6,61.5h-39.2V66.2l-17.7-3.9
		l-0.6-0.1v-25l-0.5-2.7L247.1,0h-4.2l6.3,34.7l0.5,2.8v76.1l-33.3,2.7l-7.2-75.4l-0.4-3.7l-2.7,0.3l0.3,3.6l7.3,75.5l-63.8,5.2
		l10.2-78.4l0.2-1.5l-4.1-0.5l-0.3,2.3l-10.2,78.5l-37.7,3.1l-7.9-78l-0.5-4.6l-0.2-2L96.6,0h-1.4L98,40l-54-0.4L42.1,0h-1.4l1.9,41
		l55.5,0.4l0.2,1.9l0.1,0.7h-1l-41.9,2.2l-29.9,62.5c-2.7-0.1-5.3-0.2-8-0.3L10.8,0H8l6.8,108.3c-5.2-0.2-10.3-0.4-14.9-0.6
		 M253.9,66.4l0.8,0.2l0.8,0.2l12.6,2.8V97h-14.2L253.9,66.4L253.9,66.4z M309.4,123.4l-55.6-9.6V98.3h57.4L309.4,123.4z
		 M359.3,67.7l0.4,8.9l0.1,2.9l0.7,16.7l-42.2,0.7l1.7-22.5l0.3-4.1l1.8-24.6c6.8,0.2,22.1,0.2,36.3,0.1l0.8,19.2L359.3,67.7z
		 M366.5,125.4l-2.3,0.6h2.5L366.5,125.4z"/>
</g>
<g>
	<polygon class="st1" points="41.3,60.7 37.1,1.1 18,1.1 23.3,99.5 	"/>
</g>
<g>
	<polygon class="st0" points="414,2.6 414,38 391.8,38.3 397.4,0 397.4,-0.2 398.7,0 	"/>
</g>
<g>
	<path class="st1" d="M151.1,1.1c-1.8,0.3-49.2,0-49.2,0l2.4,38.3l64.8-4.4L151.1,1.1z"/>
</g>
<g>
	<g>
		<g class="st3">
			<path class="st4" d="M380.3,80.3c-4.4,0-8-3.6-8-8s3.6-8,8-8s8,3.6,8,8S384.7,80.3,380.3,80.3z"/>
		</g>
		<g>
			<path d="M380.7,80.3c-4.4,0.2-8.2-3.2-8.3-7.7c-0.2-4.4,3.2-8.2,7.7-8.3c4.4-0.2,8.2,3.2,8.3,7.7
				C388.5,76.3,385.1,80.1,380.7,80.3z"/>
		</g>
		<g>
			<circle class="st5" cx="380.6" cy="72.3" r="3.1"/>
		</g>
		<g>
			<path class="st5" d="M379,70.2v4.1h-60.7c-1,0-2-0.4-2.7-1.2c-0.7-0.7-1-1.7-1-2.7l2.6-35.1l-1.4,0.1l-62.1,3.2l-4.1,0.2
				L234,39.6l-2.7,0.1h-0.5h-0.5l-12.6,0.7h-0.5h-0.5l-2.7,0.1l-4.5,0.2l-2.8,0.1l-46.3,2.4l-4.2,0.2l-54.4,2.8
				c-0.6,0-1.1,0.3-1.4,0.8c-0.1,0.1-0.1,0.1-0.1,0.2l-1,2l0,0L60.4,126h-4.6l6.7-13.2l1.4-2.7l32.6-64.5c0,0,0-0.1,0.1-0.1
				c0.3-0.5,0.6-1,1.1-1.4c0.3-0.3,0.6-0.5,0.9-0.8c0.4-0.3,0.8-0.5,1.3-0.6c0.5-0.2,1.1-0.3,1.7-0.3l112.1-5.8l2.7-0.1h0.5h0.5
				l12.8-0.7h0.5h0.5l2.7-0.2l15.4-0.8l4.1-0.2l62.9-3.2l1.4-0.1c1-0.1,2,0.3,2.8,1.1c0.7,0.7,1.1,1.8,1,2.8l-2.6,35.1H379V70.2z"/>
		</g>
	</g>
	<g>
		<circle cx="223.7" cy="37.9" r="10.4"/>
	</g>
	<g>
		<circle class="st5" cx="223.7" cy="37.9" r="5.4"/>
	</g>
	<g class="st3">
		<circle class="st6" cx="223.7" cy="37.9" r="7.2"/>
		<path class="st7" d="M231.1,35.7c-1-3.2-3.9-5.5-7.4-5.5c-3.8,0-6.9,2.7-7.6,6.2c-0.1,0.5-0.1,1-0.1,1.5c0,0.9,0.2,1.8,0.5,2.6
			c1.1,3,3.9,5.1,7.3,5.1c3.6,0,6.6-2.5,7.5-5.9c0.2-0.6,0.2-1.2,0.2-1.9C231.5,37.1,231.3,36.4,231.1,35.7z M223.8,44.6
			c-2.8,0-5.2-1.7-6.2-4.1c-0.3-0.8-0.5-1.7-0.5-2.6c0-0.5,0.1-1,0.2-1.5c0.7-3,3.3-5.2,6.5-5.2c2.9,0,5.4,1.9,6.3,4.5
			c0.2,0.7,0.4,1.4,0.4,2.2c0,0.7-0.1,1.3-0.3,1.9C229.3,42.6,226.8,44.6,223.8,44.6z"/>
	</g>
</g>
<g>
	<g>
		<path class="st2" d="M254.2,56.4c-0.1,0-0.2,0-0.3,0c-1.5,0.2-2.5,1.4-2.5,3c0,1.7,1.2,3,2.8,3c0.1,0,0.2,0,0.2,0
			c1.5-0.1,2.6-1.3,2.6-3C257.1,57.6,255.9,56.4,254.2,56.4z M254.2,61.5c-0.1,0-0.2,0-0.3,0c-1-0.2-1.8-1-1.8-2.1s0.7-2,1.8-2.1
			c0.1,0,0.2,0,0.3,0c1.2,0,2.2,0.9,2.2,2.2C256.4,60.6,255.5,61.5,254.2,61.5z"/>
		<path class="st2" d="M257.4,63.4h-5.9v0.7h0.7c-0.5,0.4-0.7,0.9-0.7,1.5c0,1.2,0.9,2.1,2.2,2.1c0.1,0,0.2,0,0.3,0
			c0.7-0.1,1.3-0.5,1.6-1c0.2-0.3,0.3-0.7,0.3-1.1c0-0.6-0.2-1.1-0.7-1.5h2.3v-0.7H257.4z M255,65.6c0,0.4-0.1,0.7-0.4,1
			c-0.2,0.2-0.5,0.4-0.8,0.4c-0.1,0-0.2,0-0.3,0c-0.9,0-1.5-0.6-1.5-1.4s0.6-1.4,1.5-1.4S255,64.8,255,65.6z"/>
		<path class="st2" d="M251.2,68.9c-0.5,0-0.7-0.2-0.7-0.6c0-0.2,0.1-0.5,0.2-0.6l-0.6-0.2c-0.2,0.2-0.2,0.6-0.2,0.9
			c0,0.9,0.5,1.3,1.4,1.3h4.4v-0.8C255.7,68.9,251.2,68.9,251.2,68.9z M257,68.8c-0.3,0-0.5,0.2-0.5,0.5s0.2,0.5,0.5,0.5
			s0.5-0.2,0.5-0.5S257.3,68.8,257,68.8z"/>
		<path class="st2" d="M253.9,70.8c-0.1,0-0.2,0-0.3,0c-1.3,0-2.2,0.9-2.2,2.3c0,0.7,0.2,1.3,0.7,1.7l0.5-0.4
			c-0.4-0.3-0.5-0.7-0.5-1.2c0-0.8,0.5-1.4,1.2-1.5v3.4c0.1,0,0.2,0,0.2,0c0.1,0,0.2,0,0.3,0c1.1-0.1,1.8-1,1.8-2.1
			S255,70.9,253.9,70.8z M253.9,74.2L253.9,74.2v-2.7l0,0c0.7,0.1,1.2,0.6,1.2,1.3C255.1,73.6,254.6,74.1,253.9,74.2z"/>
		<path class="st2" d="M253.9,75.6c-0.1,0-0.2,0-0.3,0c-1.3,0-2.2,0.9-2.2,2.2c0,0.8,0.3,1.4,0.9,1.7l0.4-0.6
			c-0.4-0.3-0.6-0.7-0.6-1.2c0-0.8,0.6-1.4,1.5-1.4c0.1,0,0.2,0,0.3,0c0.7,0.1,1.2,0.7,1.2,1.4c0,0.5-0.2,0.9-0.6,1.2l0.4,0.6
			c0.6-0.3,0.9-1,0.9-1.7C255.7,76.6,255,75.8,253.9,75.6z"/>
		<path class="st2" d="M255.7,80.7V80H255v0.7h-2.3c-0.8,0-1.3,0.5-1.3,1.3c0,0.3,0.1,0.7,0.3,0.9l0.5-0.2c-0.1-0.2-0.2-0.4-0.2-0.6
			c0-0.4,0.3-0.7,0.7-0.7h2.3v1.2h0.6v-1.2h0.9v-0.8L255.7,80.7L255.7,80.7z"/>
		<path class="st2" d="M257,83.8c-0.3,0-0.5,0.2-0.5,0.5s0.2,0.5,0.5,0.5s0.5-0.2,0.5-0.5S257.3,83.8,257,83.8z M251.4,83.9v0.8h4.2
			v-0.8H251.4z"/>
		<path class="st2" d="M255.7,86.2v-0.8l-1.8,0.8l-2.4,1.1V88l2.4,1.1l1.8,0.8v-0.8l-1.8-0.8l-1.6-0.7l1.6-0.7L255.7,86.2z"/>
		<path class="st2" d="M253.9,90.1c-0.1,0-0.2,0-0.3,0c-1.3,0-2.2,0.9-2.2,2.3c0,0.7,0.2,1.3,0.7,1.7l0.5-0.4
			c-0.4-0.3-0.5-0.7-0.5-1.2c0-0.8,0.5-1.4,1.2-1.5v3.4c0.1,0,0.2,0,0.2,0c0.1,0,0.2,0,0.3,0c1.1-0.1,1.8-1,1.8-2.1
			C255.7,91.1,255,90.2,253.9,90.1z M253.9,93.5C253.9,93.6,253.9,93.6,253.9,93.5v-2.7l0,0c0.7,0.1,1.2,0.6,1.2,1.3
			C255.1,92.9,254.6,93.5,253.9,93.5z"/>
	</g>
</g>
<g>
	<g>
		<path class="st5" d="M378.5,46.6c-4.1,0.8-7.4,4.1-8.1,8.3c-0.5,2.6,0.1,5,1.2,7l0,0c0.4,0.7,0.9,1.1,1.4,1.8l6,7.9
			c0.7,1,2.2,1,3,0l5.9-7.8c0,0,1.1-1.3,1.5-2l0,0c0.9-1.5,1.4-3.3,1.4-5.2C390.8,50.4,385.1,45.4,378.5,46.6z M385,56.7
			c0,2.5-2,4.5-4.5,4.5s-4.5-2-4.5-4.5s2-4.5,4.5-4.5S385,54.2,385,56.7z"/>
	</g>
</g>
<rect class="st8" width="414" height="126"/>
<rect y="122" class="st5" width="58" height="4"/>
</svg>
