<svg xmlns="http://www.w3.org/2000/svg" xmlns:xlink="http://www.w3.org/1999/xlink" viewBox="0 0 750 500"><defs><style>.cls-1{fill:none;}.cls-2{fill:#449384;}.cls-3{fill:#0d5448;}.cls-4{clip-path:url(#clip-path);}.cls-5{fill:#ffab50;}.cls-6{fill:#e27100;}.cls-7{clip-path:url(#clip-path-2);}.cls-8{fill:#6d9991;}.cls-9{fill:#053d32;}.cls-10{fill:#85bab0;}.cls-11{fill:#ffabab;}.cls-12{fill:#ed6e6e;}.cls-13{fill:#a83333;}.cls-14{clip-path:url(#clip-path-3);}.cls-15{fill:#fff;}.cls-16{fill:#ffd95f;}.cls-17{fill:#ffbb43;}.cls-18{fill:#d68a0f;}.cls-19{fill:#ffe9c5;}.cls-20{fill:#703500;}.cls-21{fill:#bc6117;}.cls-22{fill:#7c1919;}.cls-23{fill:#f49a9a;}.cls-24{fill:#d65858;}.cls-25{fill:#539689;}.cls-26{fill:#beede4;}.cls-27{fill:#ffebeb;}.cls-28{fill:#ff6e6e;}.cls-29{fill:#5ba2b2;}.cls-30{fill:#ffd15f;}.cls-31{fill:#002d38;}</style><clipPath id="clip-path"><path class="cls-1" d="M306.37,242.66c-8.06-2-13-2.43-20-.41-10.27,3-10.48,16.66-11.59,25.61a276.72,276.72,0,0,0-.26,61.57c.3,3.44.35,11.12,3.56,13.31,5.09,2.88,11-4.87,13.5-8.14a124.36,124.36,0,0,0,15.07-29.42c3.89-10.87,21.16-45.24,12.46-56.18-.93-1.22-5.81-4.85-12.74-6.34"/></clipPath><clipPath id="clip-path-2"><path class="cls-1" d="M233.65,189.45c-12.65-.84-28.63,4.84-39.16,10.67-13.16,7.29-26.59,25.18-29.25,40-.54,3.87-1.12,8-1.7,12.22,5.75.19,13.74-2.65,19.4-4,.18,3.06.75,18.63,3.27,20.2,3.92,2.37,20.69-9,23.79-11.59,11.79-10.51,18.19-26,21.2-41.11,1.79-8.56,3.08-17.8,2.45-26.4"/></clipPath><clipPath id="clip-path-3"><path class="cls-1" d="M248.26,79.66,353.5,94.27S338.24,147.63,292,140.76,248.26,79.66,248.26,79.66Z"/></clipPath></defs><title>3908958</title><g id="OBJECTS"><path class="cls-2" d="M300,233c-1.08-5.74-1.78-9.45-6.05-13.54-3-2.93-19.29-17-8.36-18.35,3-.57,8.17,4.4,10.75,3.22,3.52-1.71-2.29-6.56-4.09-8.67s-6.8-6.4-7-9.17c-.39-7.61,5.86-.41,9.17-1.38,6.56-2.29-7.85-21.24-3.62-26.58,7.44-8.75,15.56,19.43,18.22,22.43,2.4-4,15.26-15.47,17.72-6.15,1.61,6.69-7.56,13.66-7.36,20.27,3.77-.36,12.1-4.38,12,2.62,0,3.84-8,9.55-10.3,12.08-7,7.27-15.66,15.19-20.67,23.83"/><path class="cls-2" d="M311.75,237.8c3-8.25,4.26-20,13.66-23.9.26,1.35.91,3,.83,4.39,5.53-.35,8.42-12.78,13-16.1,10.18-7.16,0,7.35,6.4,6.14,2.37-.45,17.52-12.75,17.36-4.33-.14,6.67-12.88,7.67-13.55,13.39,3.36,1.12,9.16.37,11.28,4.17,2.3,4.81-3,6.5-7,7.26-5.8.75-17.86-5.71-22.43-.3-4.36,4.67,3.53,3.87,3.62,8,.15,4.52-5.23,3.79-8.06,3.62-4.64-.52-11.35-2.75-15.28-1.31"/><path class="cls-3" d="M306.93,255.26c.81-10.22,7.93-19.88,15.18-26.75,6.78-6.41,15.9-9.53,23.37-15,.64-.47,0-1.56-.63-1.08-8.48,6.21-18.64,9.64-25.85,17.54-6.46,7.07-12.54,15.46-13.32,25.29-.06.8,1.19.8,1.25,0Z"/><path class="cls-3" d="M292.9,255.28c5-12.45,9.88-25,12-38.27,2-12.87-.24-25.65-2.63-38.29-.14-.79-1.35-.46-1.2.33,2.6,13.79,4.69,27.28,2,41.24-2.31,12-6.87,23.36-11.38,34.65-.29.75.91,1.08,1.21.34Z"/><path class="cls-3" d="M322.1,221.59c-1.06,2.9-2.64,5.6-3.26,8.65a.63.63,0,0,0,.6.79c2.6.24,5.21.4,7.81.63.8.07.8-1.18,0-1.25-2.6-.23-5.21-.39-7.81-.63l.6.8c.62-3.06,2.21-5.76,3.26-8.66.28-.76-.93-1.08-1.2-.33Z"/><path class="cls-3" d="M339.41,209.09a51.75,51.75,0,0,0-5.43,10.6c-.16.41.23.77.6.8,3.26.18,6.42,1.13,9.68,1.31.81,0,.81-1.2,0-1.25-3.26-.18-6.42-1.13-9.68-1.31l.6.79a50.54,50.54,0,0,1,5.31-10.31c.44-.67-.64-1.29-1.08-.63Z"/><path class="cls-3" d="M294.14,211.55c3.75,2.71,6.58,6.19,9.37,9.85a.64.64,0,0,0,1.08,0c3-4,7.38-6.46,10.52-10.27.51-.62-.37-1.51-.88-.89-3.21,3.9-7.69,6.45-10.72,10.53h1.08c-2.92-3.83-5.89-7.46-9.82-10.3-.65-.47-1.28.61-.63,1.08Z"/><path class="cls-3" d="M295.76,192.94c3.22,3.8,5.95,8,9.51,11.49a.63.63,0,0,0,1-.13c2.63-3.91,4.88-8,7.14-12.18.39-.71-.69-1.34-1.08-.63-2.25,4.13-4.51,8.27-7.14,12.18l1-.12c-3.57-3.5-6.3-7.7-9.51-11.49-.53-.61-1.41.27-.89.88Z"/><path class="cls-3" d="M298.79,186.78c1.4,1.52,2.94,2.9,4.33,4.42a.63.63,0,0,0,.89,0c1.82-2.24,3.46-4.62,5.09-7,.45-.66-.63-1.29-1.08-.63-1.57,2.3-3.14,4.6-4.9,6.76H304c-1.4-1.52-2.94-2.9-4.33-4.43-.55-.59-1.43.29-.89.89Z"/><path class="cls-3" d="M297.46,168.15a1.27,1.27,0,0,0,.47,2.49A1.27,1.27,0,0,0,297.46,168.15Z"/><path class="cls-3" d="M300.06,171a1.27,1.27,0,0,0,.48,2.5A1.27,1.27,0,0,0,300.06,171Z"/><path class="cls-3" d="M315.16,184.31a1.24,1.24,0,0,0,.46,2.43A1.24,1.24,0,0,0,315.16,184.31Z"/><path class="cls-3" d="M317.87,180a1.24,1.24,0,0,0,.46,2.43A1.24,1.24,0,0,0,317.87,180Z"/><path class="cls-3" d="M319.12,200a1.4,1.4,0,0,0,.52,2.74A1.4,1.4,0,0,0,319.12,200Z"/><path class="cls-3" d="M287.74,206a1.18,1.18,0,0,0,.44,2.32A1.18,1.18,0,0,0,287.74,206Z"/><path class="cls-3" d="M353.76,205.73a1.4,1.4,0,0,0,.52,2.74A1.4,1.4,0,0,0,353.76,205.73Z"/><path class="cls-3" d="M349.54,221.23a1.38,1.38,0,0,0,.51,2.72A1.38,1.38,0,0,0,349.54,221.23Z"/><path class="cls-3" d="M354.25,222.31a1.38,1.38,0,0,0,.51,2.72A1.38,1.38,0,0,0,354.25,222.31Z"/><path class="cls-3" d="M326.12,235.24a1.4,1.4,0,0,0,.52,2.75A1.4,1.4,0,0,0,326.12,235.24Z"/><g class="cls-4"><path class="cls-5" d="M306.37,242.66c-8.06-2-13-2.43-20-.41-10.27,3-10.48,16.66-11.59,25.61a276.72,276.72,0,0,0-.26,61.57c.3,3.44.35,11.12,3.56,13.31,5.09,2.88,11-4.87,13.5-8.14a124.36,124.36,0,0,0,15.07-29.42c3.89-10.87,21.16-45.24,12.46-56.18-.93-1.22-5.81-4.85-12.74-6.34"/><path class="cls-6" d="M283.12,257.12c12.66.61,26.06.11,37.34,6.79a.63.63,0,0,0,.63-1.08c-11.47-6.8-25.09-6.34-38-7-.8,0-.8,1.21,0,1.25Z"/><path class="cls-6" d="M294.1,250.5c4.46.46,9.06.12,13.43,1.27,3.85,1,7.28,3.14,10.85,4.84.72.34,1.36-.74.63-1.08-3.68-1.75-7.19-3.92-11.15-5-4.48-1.19-9.18-.83-13.76-1.31-.8-.08-.79,1.17,0,1.25Z"/><path class="cls-6" d="M274.94,278.59a61.14,61.14,0,0,1,30.54,6c.72.34,1.36-.73.63-1.08a62.42,62.42,0,0,0-31.17-6.14c-.8.06-.8,1.31,0,1.25Z"/><path class="cls-6" d="M279.13,271.16c8,.55,15.65,1.36,22.73,5.35.7.39,1.33-.69.63-1.08-7.24-4.08-15.21-4.95-23.36-5.52-.8-.06-.8,1.19,0,1.25Z"/><path class="cls-6" d="M283.43,300.35c10.24,2.33,20,5.19,29.38,10.09.72.38,1.35-.7.64-1.08-9.43-4.94-19.35-7.86-29.69-10.21-.78-.18-1.11,1-.33,1.2Z"/><path class="cls-6" d="M293.11,296.08c4.41,1.51,8.94,2.41,13,4.79a.63.63,0,0,0,.63-1.08c-4.15-2.43-8.78-3.37-13.3-4.92-.76-.26-1.09.95-.33,1.21Z"/><path class="cls-6" d="M266.58,320.31c7.62,1.39,15.18,3.08,22.64,5.17a.63.63,0,0,0,.34-1.21c-7.47-2.09-15-3.77-22.65-5.16-.79-.15-1.12,1.06-.33,1.2Z"/><path class="cls-6" d="M276.59,316a92.83,92.83,0,0,1,12.1,3c.76.27,1.08-.93.33-1.2a91.11,91.11,0,0,0-12.09-3c-.79-.17-1.12,1-.34,1.2Z"/></g><path class="cls-2" d="M168.86,110c13.29,9.12,21.22,24.44,31.33,36.6,2.28-1.42,14.27-5.83,13.62-8.17-1.63-5.78-5.55-15-6.78-18.63-3-8.39-4.92-14.55-7.88-25.71l-8.73,3c4.75,8.28,6.83,18.28,11.18,26.86-1.5.84-3.39,2-4.89,2.79-4.54-4.79-8-10.12-13.27-14.32-3.12-2.52-8.72-4.68-10.52-6.66"/><path class="cls-3" d="M180.56,110.59c-2.36,17-25.85,21.38-25.79.93-6.84,1.82-14.23.1-14.8-8.3-.27-8,5.5-9.64,12.16-10.1-3.81-5-10.26-13.56-5.18-20.14,4.68-6.28,12-1.46,17.54,1,.94-6.81,1.34-17.15,10.37-17.29,8.74-.52,11.21,9.19,13,16,3.42-7.16,14.51-17.06,22-8.4,6.24,7.46-1.24,18.91-6.85,24.37,7.24.31,19.34,3,15.79,13.63-2.83,7.93-14.51,4.58-20,1.4-.17,6.21.53,11.17-6.7,13.28-5,1-10.3-.73-11.59-6.46"/><path class="cls-2" d="M163.19,104.13c-2.6,5.91,6,13.85,10.73,8,.5-.62-.38-1.51-.88-.88-3.79,4.66-10.84-1.79-8.77-6.49.32-.73-.75-1.37-1.08-.63Z"/><path class="cls-2" d="M156.19,100.51c2.39-4.29,7.71-7.65,11.44-2.77.49.63,1.57,0,1.08-.63-4.29-5.6-10.65-2.52-13.6,2.77-.39.71.69,1.34,1.08.63Z"/><path class="cls-2" d="M154.54,81.57c1.51,4.8,7.85,5,11.2,2,.6-.54-.29-1.42-.88-.88-2.63,2.36-7.9,2.38-9.12-1.49-.24-.76-1.44-.43-1.2.34Z"/><path class="cls-2" d="M174.6,89.24c5.22,0,8.07,7.26,5.39,11.32-.45.67.63,1.3,1.08.63,3.22-4.88-.34-13.19-6.47-13.2a.63.63,0,0,0,0,1.25Z"/><path class="cls-2" d="M172.12,69.46c-1.81,6.86,5.51,11.51,11.35,8.05a.63.63,0,0,0-.63-1.08c-4.87,2.89-11.05-.82-9.51-6.64a.63.63,0,0,0-1.21-.33Z"/><path class="cls-2" d="M189.84,86c3.13,2.84,5,7.81,1.45,11.1-.59.55.3,1.43.89.89,4-3.74,2.19-9.57-1.46-12.88-.6-.54-1.48.34-.88.89Z"/><path class="cls-2" d="M199.35,71c-3,3.89-1.82,9.79,1.89,12.79.62.51,1.51-.37.89-.88-3.32-2.68-4.38-7.8-1.7-11.28.49-.64-.6-1.26-1.08-.63Z"/><path class="cls-2" d="M202.85,96.39c1.67,3,4.91,5.36,8.35,3.69.72-.35.09-1.43-.63-1.08-2.8,1.37-5.35-.91-6.64-3.24a.63.63,0,0,0-1.08.63Z"/><path class="cls-3" d="M178.73,217.38c-.42-8,1.92-18.27,6.2-25,2-3.37,10.71-13.7,12.44-6.47,1.3,5.95-4.6,9.08,2.61,14-6,5.86-13.35,15.16-20.82,18.68"/><path class="cls-3" d="M229.58,194.66c-16.81-10.23,6.62-36.76,16-43.35,4.73,11.9-.26,41.29-15.53,44"/><path class="cls-3" d="M230.63,196.3c6.57-17.55,25.61-17.13,40.7-13.45C263,190,260.28,198.19,247.8,198.68c-4.81.29-14.62-.12-18.34-3.18"/><g class="cls-7"><path class="cls-8" d="M233.65,189.45c-12.65-.84-28.63,4.84-39.16,10.67-13.16,7.29-26.59,25.18-29.25,40-.54,3.87-1.12,8-1.7,12.22,5.75.19,13.74-2.65,19.4-4,.18,3.06.75,18.63,3.27,20.2,3.92,2.37,20.69-9,23.79-11.59,11.79-10.51,18.19-26,21.2-41.11,1.79-8.56,3.08-17.8,2.45-26.4"/><path class="cls-9" d="M175.76,244.53a30.64,30.64,0,0,1-2.55-3.55c-1.05-1.86-1.72-5.22,1.45-5.33,2.85-.1,5.45,2.23,8,3.26.75.3,1.07-.91.34-1.21-2.95-1.19-7.26-4.95-10.53-2.62-3.76,2.69.37,7.66,2.23,10.08.48.63,1.57,0,1.08-.63Z"/><path class="cls-10" d="M176,213c-3.07,9.55,5.9,11.31,13.27,11.65,2.92.13,1.34.85,1.64,3.9a10.11,10.11,0,0,0,2.28,5.76c3.94,4.55,9.43,2.15,14,0l-.91-.71c-1.61,6.76,9.6,22.05,15.49,13.11.44-.68-.64-1.3-1.08-.63-4.87,7.39-14.5-6.7-13.21-12.15a.63.63,0,0,0-.92-.7c-4.47,2.1-10.27,4.84-13.47-1.51-1.21-2.41-1.09-5.18-.63-7.77.06-.35-.16-.85-.6-.79-6.79.84-17.69-.34-14.64-9.83.25-.77-1-1.1-1.2-.34Z"/><path class="cls-10" d="M188.89,201.23c-3,6.1-.26,11.67,6.53,12.92a13.52,13.52,0,0,0,4.21.11c1.21-.15,1.76-.67,2.5.06a28.24,28.24,0,0,1,.39,2.85,8.23,8.23,0,0,0,4.89,6,7.78,7.78,0,0,0,3.86.26c.52-.08,4.89-1.87,4.4-2.16.32.19.67,2.79.94,3.41a16.2,16.2,0,0,0,2.56,4.08c3.78,4.5,9.75,6.58,12.62.16.32-.73-.75-1.36-1.08-.63-4.11,9.21-13.68-1.93-13.81-7.84a.63.63,0,0,0-.94-.54c-6.86,4.72-12.58,1-12.58-7.11a.63.63,0,0,0-.79-.6c-7.16,2.55-17.05-1.43-12.62-10.35.36-.72-.72-1.35-1.08-.63Z"/><path class="cls-10" d="M204.47,191.85c-4.24,8.9,4.41,15.55,12.73,11.62l-.91-.71c-2.46,10.41,13.17,18.11,18.36,7.73.36-.71-.72-1.35-1.08-.63-4.57,9.14-18.21,2.26-16.08-6.77a.63.63,0,0,0-.92-.7c-7,3.32-14.77-2-11-9.91.35-.72-.73-1.36-1.08-.63Z"/><path class="cls-10" d="M217.08,188.29a6.46,6.46,0,0,0,2.12,7.49,8.27,8.27,0,0,0,4.75,1.74c-.28,0,2.46,0,2.15-.2.61.31.5.77.86,1.35,3,4.72,8.64,7.49,11.37.93.31-.74-.9-1.06-1.2-.33-2.65,6.37-8.67,1.45-9.62-3a.64.64,0,0,0-.77-.44c-4.69,1.46-10.22-1.74-8.46-7.19.25-.77-.95-1.1-1.2-.33Z"/><path class="cls-3" d="M196.58,222.29c4.79-3.9,11.33-9.37,17.1-11.61,2.26-.9,6.46-2.75,7.84.48.6,2.21-2.66,6-3.25,8.06,11.25,2.17,5.87,8.11-2.81,9.33,3.73,8.12-.21,12.43-7.85,6.21-3.84-3-9.23-8-11-12.47"/></g><path class="cls-11" d="M147.06,137.15c-13.36,1.27-27.29,4.19-39.48,4.58-11.9.77-23.55,2.28-35.2,3.78-18.45,3-37.34,4.18-55.5,7.56-1.79.44-3.49.21-4.95.7-1.52,8.46,4,21,7.11,28.73a63.76,63.76,0,0,0,21,28.91C53.83,221.66,77.51,224.24,94,222c31.8-4.25,52.76-35.33,53.05-84.88"/><path class="cls-2" d="M147.06,137.15c-3,.28-6,.65-9,1-.09,13.66-2.59,27.24-9.6,39.23-8.27,14.13-24,25.82-40.71,27.2-18.56,1.53-35.18-6.41-48-19.36-8.56-8.63-17.38-20.36-18.29-33-1.54.26-3.07.51-4.6.79-1.79.44-3.49.21-4.95.7-1.52,8.46,4,21,7.11,28.73a63.76,63.76,0,0,0,21,28.91C53.83,221.66,77.51,224.24,94,222,125.81,217.78,146.77,186.7,147.06,137.15Z"/><path class="cls-3" d="M27.5,169.82a40.36,40.36,0,0,1-6-17.54c-1.54.26-3.07.51-4.6.79-1.79.44-3.49.21-4.95.7-1.27,7.09,2.41,17,5.45,24.62Z"/><path class="cls-3" d="M31.78,203.77c3.73-5.4,7.13-11,9.15-17.3,0,0,0,0,0-.05-.39-.38-.8-.76-1.18-1.15-1.38-1.38-2.75-2.85-4.1-4.39L23.09,191.53A65.09,65.09,0,0,0,31.78,203.77Z"/><path class="cls-3" d="M64.09,201.34a62,62,0,0,1-11.83-5.92c-2.53,6.27-6.22,11.91-10.12,17.45a61,61,0,0,0,19.47,7.63Q63.28,211,64.09,201.34Z"/><path class="cls-3" d="M90.64,204.28c-1,.15-1.9.27-2.86.35a54.91,54.91,0,0,1-10.19-.12q-.82,9-2.39,18A92.78,92.78,0,0,0,94,222c.65-.09,1.3-.2,1.94-.31C94.23,215.89,92.53,210.06,90.64,204.28Z"/><path class="cls-3" d="M115.49,192.61a57,57,0,0,1-11.78,7.57c1.86,5.8,3.56,11.65,5.3,17.49a52.93,52.93,0,0,0,17.19-13A86.73,86.73,0,0,1,115.49,192.61Z"/><path class="cls-3" d="M137.15,151.5c2.76,2,5.63,3.86,8.55,5.62a157.08,157.08,0,0,0,1.36-20c-3,.28-6,.65-9,1A100,100,0,0,1,137.15,151.5Z"/><path class="cls-3" d="M133.79,165.8a64.6,64.6,0,0,1-5.3,11.63,53.72,53.72,0,0,1-3.33,5,71.55,71.55,0,0,0,9.1,10.92,90,90,0,0,0,8.69-22C139.86,169.53,136.79,167.72,133.79,165.8Z"/><path class="cls-3" d="M47.46,165.77a13.67,13.67,0,0,0-2.89-6.23.67.67,0,0,0-1.12.14.56.56,0,0,0-.16.15c-1.76,2.36-4.3,9.1.53,9.6A3.08,3.08,0,0,0,47.46,165.77Z"/><path class="cls-3" d="M67.54,183.47a13.47,13.47,0,0,0-2.89-6.23.66.66,0,0,0-1.11.13.64.64,0,0,0-.17.16c-1.76,2.36-4.3,9.1.54,9.6A3.07,3.07,0,0,0,67.54,183.47Z"/><path class="cls-3" d="M98.33,181.5a13.47,13.47,0,0,0-2.89-6.23.66.66,0,0,0-1.11.14.59.59,0,0,0-.17.15c-1.76,2.36-4.3,9.1.54,9.6A3.07,3.07,0,0,0,98.33,181.5Z"/><path class="cls-3" d="M82.61,162.32a13.57,13.57,0,0,0-2.88-6.22.66.66,0,0,0-1.12.13.64.64,0,0,0-.17.16c-1.76,2.35-4.3,9.1.54,9.59A3.06,3.06,0,0,0,82.61,162.32Z"/><path class="cls-3" d="M118.4,159.32a13.47,13.47,0,0,0-2.89-6.23.66.66,0,0,0-1.11.13.64.64,0,0,0-.17.16c-1.76,2.35-4.3,9.1.54,9.59A3.06,3.06,0,0,0,118.4,159.32Z"/><path class="cls-2" d="M73.69,73.57c-8.64-.16-25.3-10.1-31.1-15.77C54.16,59.41,65.1,63,76.28,64.91c-6.64-9.59-14-21.71-16.16-33.46C70,34.91,75.93,50,82.86,57.5c.4-10.35.1-23.22,4.92-33C92,31.72,93.85,48.27,94,54.88"/><path class="cls-12" d="M127.56,75.14c-3-12.62-9.75-24.74-24.1-25.24-13.1-.45-28.2,8.63-34.4,20.1a33.53,33.53,0,0,0-2.46,3.59c-6.25,10.72-3.2,20.61,4.06,29.7,11,13.82,41.77,35.77,54.62,12.29C131.9,103.48,130.64,88.1,127.56,75.14Z"/><path class="cls-13" d="M76.19,87.88a4.92,4.92,0,0,0-.14-.55,7.38,7.38,0,0,0-1.74-3.71c-.76-1-2.35-2.66-3.73-1.7-2.9,2,2.55,6.26,4.31,7A.94.94,0,0,0,76.19,87.88Z"/><path class="cls-13" d="M88.59,78.51c0-.19-.09-.38-.14-.56a7.42,7.42,0,0,0-1.74-3.71c-.76-1-2.35-2.66-3.74-1.7-2.89,2,2.56,6.27,4.31,7A1,1,0,0,0,88.59,78.51Z"/><path class="cls-13" d="M101,69.13c0-.19-.09-.37-.14-.55a7.38,7.38,0,0,0-1.74-3.71c-.77-1-2.35-2.66-3.74-1.7-2.89,2,2.56,6.26,4.31,7A1,1,0,0,0,101,69.13Z"/><path class="cls-13" d="M112.72,62.09c0-.19-.09-.37-.14-.55a7.41,7.41,0,0,0-1.74-3.72c-.77-1-2.35-2.65-3.74-1.7-2.89,2,2.55,6.27,4.31,7A1,1,0,0,0,112.72,62.09Z"/><path class="cls-13" d="M91.24,96.91c0-.19-.09-.38-.14-.56a7.42,7.42,0,0,0-1.74-3.71c-.77-1-2.35-2.66-3.74-1.7-2.89,2,2.55,6.27,4.31,7A1,1,0,0,0,91.24,96.91Z"/><path class="cls-13" d="M94.94,112.68a3.41,3.41,0,0,0-.14-.55,7.36,7.36,0,0,0-1.73-3.71c-.77-1-2.36-2.66-3.74-1.71-2.89,2,2.55,6.27,4.31,7A1,1,0,0,0,94.94,112.68Z"/><path class="cls-13" d="M103,89.53a3.53,3.53,0,0,0-.14-.56,7.33,7.33,0,0,0-1.74-3.71c-.76-1-2.35-2.66-3.73-1.7-2.89,2,2.55,6.26,4.31,7A.94.94,0,0,0,103,89.53Z"/><path class="cls-13" d="M108.67,106.26c0-.19-.09-.37-.14-.55a7.38,7.38,0,0,0-1.74-3.71c-.77-1-2.35-2.66-3.74-1.7-2.89,2,2.55,6.26,4.31,7A1,1,0,0,0,108.67,106.26Z"/><path class="cls-13" d="M116.09,80.24a4.92,4.92,0,0,0-.14-.55A7.38,7.38,0,0,0,114.21,76c-.76-1-2.35-2.66-3.73-1.7-2.9,2,2.55,6.26,4.31,7A.94.94,0,0,0,116.09,80.24Z"/><path class="cls-13" d="M120.7,96.23a4.42,4.42,0,0,0-.14-.55A7.41,7.41,0,0,0,118.82,92c-.76-1-2.35-2.66-3.73-1.7-2.9,2,2.55,6.27,4.31,7A1,1,0,0,0,120.7,96.23Z"/><path class="cls-5" d="M271.24,80.55c-6-6.82-12.41-13.31-18-20.53-2-2.63-6.14.48-4.11,3.11,5.55,7.22,11.94,13.71,18,20.53C269.32,86.14,273.45,83.05,271.24,80.55Z"/><path class="cls-5" d="M280.94,82.12c-2.3-13.41-5.92-26.5-9.29-39.67-.81-3.17-5.93-2.54-5.11.68,3.38,13.16,7,26.25,9.29,39.66C276.39,86.05,281.51,85.4,280.94,82.12Z"/><path class="cls-5" d="M290.63,43c.51-3.28-4.6-4-5.11-.71-2.27,14.56-1.48,29.34-3.32,43.93-.42,3.3,4.69,4,5.1.71C289.15,72.33,288.35,57.56,290.63,43Z"/><path class="cls-12" d="M295.12,51.55a3,3,0,0,0-1.76.4c-9.39,5.09-14.1,15-9.57,25.16,4.62,10.4,16.67,12.78,26.09,7.62C328.21,74.69,312.17,44.76,295.12,51.55Zm11,27.47c-5.94,3.26-12.8,1.56-15.95-4.53s-.4-12.26,4.9-15.64a3.6,3.6,0,0,0,1.63-.53c4.86-3,10.08,1.83,12.64,5.62C313,69.32,311.89,75.84,306.09,79Z"/><path class="cls-12" d="M354.17,61.36c-6.52-6.29-16.37-4-20.95,3.19s-3.6,16.85,3.41,22a3.38,3.38,0,0,0,1.88.69c4.88,2.56,11.15-.31,15.23-4.34C359.93,76.84,360.48,67.44,354.17,61.36ZM340.39,79.82a3,3,0,0,0-1.86-1.34c-3.65-6.83,2.61-17.92,10.65-12.33C357.47,71.9,344.51,86,340.39,79.82Z"/><path class="cls-2" d="M253,85.41c-8.13-8.07-10.57-20.43,4.55-12.78,8.24,3.92,6.88,3.73,10.34-4.58,1.54-4.41,4.49-12.32,10.46-8.72,6.76,4.64-1.31,12.77,9,11.88,6.54-.47,12.66-7.95,17.94.65,9.19,13.75-15.21,19.62-24,19.33-9.65-.42-17.9-4.34-27.48-5.2"/><path class="cls-3" d="M299.17,96c-2.09-4.91-9.91-15.24-3.77-19.48,5.62-3.84,10,4.63,15.17,4,6.54-.48,4.76-7.66,7.72-12.34,2.38-3.83,9.29-10.27,13.65-5,4,4.26-4,12.39,3.49,14.82,4.87,1.6,10.08-6,16.12-2.85,5.19,2.57,4.82,8.53,2.38,12.81-11,22.52-38.82,9.87-55.28,8.51"/><path class="cls-3" d="M251.11,77.4a32.91,32.91,0,0,1,14.35,17.38c.28.75,1.49.43,1.21-.33a34.32,34.32,0,0,0-14.93-18.13.63.63,0,0,0-.63,1.08Z"/><path class="cls-3" d="M274.09,65.59c-1.33,8.82-4.1,17.69-1.32,26.51.24.76,1.45.44,1.21-.33-2.71-8.6,0-17.25,1.32-25.84.12-.79-1.09-1.13-1.21-.34Z"/><path class="cls-3" d="M297.35,70.64c-9.16,3.69-15.32,10.3-13.83,20.64.11.79,1.32.45,1.2-.33-1.38-9.6,4.56-15.72,13-19.11.74-.3.42-1.5-.33-1.2Z"/><g class="cls-14"><path class="cls-10" d="M248.26,79.66,353.5,94.27S338.24,147.63,292,140.76,248.26,79.66,248.26,79.66Z"/><path class="cls-15" d="M242.57,87.12c1.94,2.58,4,6.15,7.42,6.79,4.63.86,8.76-3.06,13.19-3.4,5.48-.42,7.26,6.85,11.17,9.53,3.15,2.16,7.13.14,10.06-1.56,3.32-1.92,5.62-4.66,9.68-2.48,2.86,1.54,4.46,4.31,6.55,6.64,2.34,2.6,5.49,4.15,9,2.84,4.46-1.68,8.26-10.78,13.83-7.5,4,2.34,3.64,8.6,7.45,11.23,8.75,6.05,13.89-15.48,22-4,.45.65,1.54,0,1.07-.64-5-7.16-9.26-3.22-14.47,1.33-2.09,1.83-4.28,3.68-7.12,2.4s-3.63-4.49-4.94-7.07c-1.51-3-3.6-5.61-7.32-5s-5.88,4.51-8.71,6.72c-7.15,5.6-10.46-3.41-15.14-7-3.8-2.87-6.29-2.59-10.05-.11-2.74,1.8-6.59,4.73-10,3.66-2.88-.9-4.54-4.58-6.52-6.73-2.57-2.8-4.31-4.17-8.1-3.13-3,.84-5.95,2.51-9.09,3-4.4.61-6.5-3-8.85-6.1-.48-.63-1.57,0-1.08.63Z"/></g><path class="cls-2" d="M303.56,81a1.72,1.72,0,0,0-.47,3.4A1.72,1.72,0,0,0,303.56,81Z"/><path class="cls-2" d="M314.51,82a1.72,1.72,0,0,0-.47,3.4A1.72,1.72,0,0,0,314.51,82Z"/><path class="cls-2" d="M325.51,79.4a1.72,1.72,0,0,0-.47,3.4A1.72,1.72,0,0,0,325.51,79.4Z"/><path class="cls-2" d="M324.83,71a1.72,1.72,0,0,0-.47,3.41A1.72,1.72,0,0,0,324.83,71Z"/><path class="cls-2" d="M328.69,63.2a1.72,1.72,0,0,0-.48,3.4A1.72,1.72,0,0,0,328.69,63.2Z"/><path class="cls-2" d="M333.68,80.53a1.72,1.72,0,0,0-.47,3.41A1.72,1.72,0,0,0,333.68,80.53Z"/><path class="cls-2" d="M339.34,86.41a1.72,1.72,0,0,0-.48,3.4A1.72,1.72,0,0,0,339.34,86.41Z"/><path class="cls-2" d="M347.66,79.7a1.72,1.72,0,0,0-.47,3.4A1.72,1.72,0,0,0,347.66,79.7Z"/><path class="cls-2" d="M349.89,87a1.72,1.72,0,0,0-.47,3.4A1.72,1.72,0,0,0,349.89,87Z"/><path class="cls-10" d="M203,306.15a18.72,18.72,0,0,0-8.26-10.4c-8-5.73-12.7-1.76-20.92.8,4.64,9.89,19.7,18,29.39,11.47"/><path class="cls-3" d="M211.2,323.42c-6.24-6.7-15.4-39.69,2.16-35.56.78.18,1.12-1,.33-1.21-19.55-4.59-10.33,30.19-3.37,37.65.54.59,1.43-.29.88-.88Z"/><path class="cls-3" d="M182.31,298.35c7.45,1.69,13.7,6.36,21,8.46a.62.62,0,0,0,.33-1.2c-7.32-2.1-13.55-6.77-21-8.47-.79-.18-1.12,1-.34,1.21Z"/><path class="cls-12" d="M247.25,324c-1.82-10.42-8.52-21.3-19.7-22.31-10.21-.91-18.43,5.87-19.8,15.13A25.6,25.6,0,0,0,193,315.21c-10.68,2.36-16.9,12-16.12,22.66,1.62,22.06,25.83,38.05,46.56,33.47C244.38,366.71,253.9,343,247.25,324Z"/><path class="cls-15" d="M190,323.74c-7.6,16.72,6.07,34.7,23.24,36.72,1.6.18,1.58-2.32,0-2.5-15.18-1.79-27.86-18.06-21.08-33,.66-1.45-1.5-2.73-2.16-1.26Z"/><path class="cls-10" d="M122.14,299.31c.31-18.92-8.31-36.76-29.68-36-12.11.63-20,11.09-32.47,10.75-15.61-.78-28.93-11.41-43.58.89C8.53,281.69,1,295.9,9,304.87c10.08,10.65,28.67,10,41.09,7.09,6.28-1.9,15-4.85,21.05-1.7,6.81,4.18,7.55,8.91,17.32,8.42,11.66-.7,26.6-5.1,32.71-15.81a11.41,11.41,0,0,0,1.35-3.05"/><path class="cls-10" d="M110.51,323.12c-16.15-6.86-49.73,1.88-57.83,16.94-6.18,11.17,1.85,10,6.41,17.08,4.63,6.65-2.67,12.57-5,19.19C49.63,388.65,57.17,411,72.2,412.59c13.22,1.37,16.85-14.77,18.23-24.75,1.26-9.07-6.37-24,.2-31.41,8.32-9.95,23.72,2.36,26.11-14.87.88-6.36-1.29-14.05-6.29-18"/><path class="cls-3" d="M146.74,339.46c-6.07-19.41-15.52-39.83-35.61-47.89-26.23-10.52-51.16,7.82-77.57,3.6-.79-.13-1.13,1.08-.33,1.2,24.53,3.92,47.68-12,72.17-5.4,22.91,6.2,33.59,27.89,40.13,48.82.24.77,1.45.44,1.21-.33Z"/><path class="cls-3" d="M73.48,387.55C71,369.15,76,346,89.32,332.41c4.32-4.38,9.88-7.76,16.11-8.32,6.73-.6,13.06,2.19,19.08,4.82,5.14,2.24,14.33,7.9,18.83,1.78.47-.65-.61-1.27-1.08-.63-4.25,5.78-15.54-1.61-20.11-3.53-4.36-1.84-8.88-3.51-13.66-3.74-9.7-.48-18,5.47-23.63,12.92-10.72,14.23-15,34.68-12.58,52.17.11.8,1.31.46,1.2-.33Z"/><path class="cls-3" d="M73.34,332.88c5.46-1.45,11.92-3.7,17.56-3.9,1.74-.06,1.89-.39,2.67,1.47a24.17,24.17,0,0,1,.82,4.28q1,5.19,2.33,10.31a.63.63,0,0,0,1.21-.33c-1.45-5.67-2.57-11.4-3.64-17.15a.62.62,0,0,0-.76-.44c-6.84,1.55-13.74,2.76-20.52,4.55a.63.63,0,0,0,.33,1.21Z"/><path class="cls-3" d="M64.93,350.2c5.28-1.31,9.85-4.44,15.13-5.76l-.79-.6c.48,4.85,2.38,9.2,4.16,13.69.29.74,1.5.41,1.2-.34-1.72-4.37-3.64-8.62-4.11-13.35a.63.63,0,0,0-.79-.6c-5.28,1.32-9.85,4.44-15.13,5.76a.62.62,0,0,0,.33,1.2Z"/><path class="cls-3" d="M62.47,379.72c4.24-4.86,8-10.09,12.25-15l-1-.12c2.29,5,3.62,10.36,7.34,14.54.54.6,1.42-.29.89-.89-3.63-4.06-4.92-9.44-7.15-14.29a.63.63,0,0,0-1-.12c-4.24,4.85-8,10.09-12.25,14.94-.53.61.35,1.5.88.89Z"/><path class="cls-3" d="M37.31,307.79c4.37-4.38,9.39-8,14.14-11.9a.64.64,0,0,0,0-.89c-3.67-4.33-9.73-5.89-12.7-10.9a.63.63,0,0,0-1.08.64c2.51,4.23,6.95,6,10.64,8.95,1.92,1.55,1.62,1.61-.13,3.26-1.1,1-2.43,1.91-3.62,2.86a91.41,91.41,0,0,0-8.13,7.1c-.57.57.32,1.46.88.88Z"/><path class="cls-3" d="M59.39,305.31c4.6-4.79,9.14-9.62,14.39-13.72a.63.63,0,0,0-.13-1c-5.33-3.16-9.6-7.66-14.61-11.27-.66-.47-1.28.61-.64,1.08,2.91,2.09,5.52,4.49,8.27,6.76,1.23,1,5,3,4.94,4.54,0,1-5.34,4.77-6.22,5.64-2.35,2.31-4.6,4.7-6.88,7.08-.56.58.32,1.46.88.88Z"/><path class="cls-3" d="M81,302.76c5.48-5.55,12.08-9.6,18.47-14a.64.64,0,0,0,.13-1c-4.33-4.45-7.14-10.07-11.91-14.13-.61-.52-1.5.36-.88.88a47.48,47.48,0,0,1,7.39,8.67,34.77,34.77,0,0,1,2.42,3.19c1.05,1.89,1.45,1.38-.45,3.11-5,4.55-11.2,7.43-16.05,12.35-.57.57.32,1.46.88.88Z"/><path class="cls-3" d="M98,302.92c5.91-2.62,11.08-6.58,17-9.2a.62.62,0,0,0,.23-.85c-3.33-5.29-5-11.29-7.26-17.05-.29-.74-1.5-.42-1.21.33,1.17,2.94,2.16,5.93,3.28,8.89.62,1.63,3.3,5.54,3.22,7-.11,2-5,3.75-6.63,4.7a85.43,85.43,0,0,1-9.25,5.06c-.74.33-.1,1.41.63,1.08Z"/><path class="cls-16" d="M156.61,384c-18.69,0-32.91,19.28-29.54,34.69a29.3,29.3,0,0,0,2.83,11.14c9.85,20.71,40.32,14.1,50.72-2.4A28.1,28.1,0,0,0,156.61,384Z"/><path class="cls-3" d="M140.17,409.59a1.72,1.72,0,0,0-.47,3.4A1.72,1.72,0,0,0,140.17,409.59Z"/><path class="cls-3" d="M149.63,394.72a1.72,1.72,0,0,0-.47,3.4A1.72,1.72,0,0,0,149.63,394.72Z"/><path class="cls-3" d="M155.72,410.82a1.72,1.72,0,0,0-.47,3.4A1.72,1.72,0,0,0,155.72,410.82Z"/><path class="cls-3" d="M167.7,394.45a1.72,1.72,0,0,0-.47,3.4A1.72,1.72,0,0,0,167.7,394.45Z"/><path class="cls-3" d="M176.5,407.69a1.72,1.72,0,0,0-.47,3.41A1.72,1.72,0,0,0,176.5,407.69Z"/><path class="cls-3" d="M142.94,422.92a1.72,1.72,0,0,0-.47,3.4A1.72,1.72,0,0,0,142.94,422.92Z"/><path class="cls-3" d="M154.84,433.82a1.72,1.72,0,0,0-.47,3.4A1.72,1.72,0,0,0,154.84,433.82Z"/><path class="cls-3" d="M169.75,419.7a1.72,1.72,0,0,0-.48,3.41A1.72,1.72,0,0,0,169.75,419.7Z"/><path class="cls-16" d="M35.55,110.81c-6.65,0-6.65,10.3,0,10.3S42.19,110.81,35.55,110.81Z"/><path class="cls-16" d="M172.94,165.77c-6.64,0-6.64,10.3,0,10.3S179.59,165.77,172.94,165.77Z"/><path class="cls-16" d="M130.35,246.83c-6.65,0-6.65,10.3,0,10.3S137,246.83,130.35,246.83Z"/><path class="cls-16" d="M251.26,259.19c-6.65,0-6.65,10.31,0,10.31S257.9,259.19,251.26,259.19Z"/><path class="cls-16" d="M226.53,43.49c-6.65,0-6.65,10.3,0,10.3S233.17,43.49,226.53,43.49Z"/><path class="cls-16" d="M374.91,163c-6.64,0-6.64,10.3,0,10.3S381.56,163,374.91,163Z"/><path class="cls-16" d="M119.36,377.35c-6.65,0-6.65,10.31,0,10.31S126,377.35,119.36,377.35Z"/><path class="cls-16" d="M258.13,406.21c-6.65,0-6.65,10.3,0,10.3S264.77,406.21,258.13,406.21Z"/><path class="cls-16" d="M468.42,137.76a968.1,968.1,0,0,1-90.69,39.41c-7.51,3.12-13.76,5.63-19.39-1.25-4.38-5-5.63-14.39-2.51-20,7.51-12.51,33.16-23.14,45.67-29.4,16.88-7.5,38.78-17.51,56.92-20,13.76-1.88,36.9,17.51,10,31.27"/><path class="cls-12" d="M492.63,120.63c-5.46-7.75-17.76-5.06-25.38-3.14-17.55,4.42-33.87,12.77-49.88,21.37-1.75.72-3.5,1.44-5.24,2.19-12.9,5.52-26,11.6-37.09,20.27-6.61,5.15-15.07,11.55-18.32,19.57-3.6,8.91,6,10.79,12.64,10.62,14.68-.39,29-8.94,41.61-15.68,7.06-3.78,14.16-7.15,21.48-10.38,18-7.93,37.55-15.63,53.11-27.93C490.39,133.7,497.22,127.14,492.63,120.63Zm-29.81,13.15c-1.59.78-3.15,1.51-4.61,2.22-1.07.51-2.15,1-3.23,1.5C457.51,136.18,460.14,134.89,462.82,133.78Z"/><path class="cls-16" d="M488.44,161.53a964.44,964.44,0,0,1-90.7,39.4c-7.5,3.13-13.76,5.63-19.39-1.25-4.38-5-5.63-14.38-2.5-20,7.51-12.51,33.15-23.14,45.66-29.4,16.89-7.51,38.78-17.51,56.92-20,13.76-1.87,36.91,17.52,10,31.28"/><path class="cls-13" d="M468.62,134.31c-1.32-2.5-3.33-4.4-4.85-6.79a37.43,37.43,0,0,0-7.41-8.88c-4.38-3.65-12.19-5-17.15-1.75-4.43,2.92-2.43,9.28-1.67,13.46.63,3.48.87,8.55-1.49,11.49-2,2.5-6.28,1.49-8.88.9a60.36,60.36,0,0,1-9.07-3.13c-4-1.62-7.16-4.57-11.33-5.89-6.86-2.16-11.32,5.25-11,11,.33,5.45,5.66,18.77-4.08,19.34-6.24.37-12.76-5-16.8-9.16-2.81-2.9-7.22,1.52-4.42,4.42,6.37,6.57,19.2,15.47,28.24,8.67,4.51-3.38,6.07-10.61,5-15.91-.34-1.65-.74-3.27-1.16-4.9a17.82,17.82,0,0,1-.64-4q3.62-4.44,6.88-1.67a69.23,69.23,0,0,0,10.24,5.18c10.11,3.95,22.74,5.06,24.76-8.45a31.53,31.53,0,0,0-.27-9.55c-.69-4.48-2.33-7.3,3.59-7.19,4.81.09,7.91,4.3,10.36,7.89,1.8,2.62,4.25,5.33,5.7,8.07C465.11,141,470.5,137.87,468.62,134.31Z"/><path class="cls-16" d="M531,167.05,505.13,239.9c-2.07,5.83,7,9,9,3.22l25.91-72.86C542.15,164.44,533.11,161.23,531,167.05Z"/><path class="cls-16" d="M560.81,153.9,528.05,246c-2.07,5.82,7,9,9,3.21l32.76-92.12C571.92,151.29,562.89,148.08,560.81,153.9Z"/><path class="cls-16" d="M579.93,178.34,555.52,247c-2.07,5.83,7,9,9,3.22L589,181.55C591,175.73,582,172.51,579.93,178.34Z"/><path class="cls-17" d="M548.09,153.45l-31.91,89.71c-2.07,5.82,7,9,9,3.21l31.91-89.71C559.19,150.83,550.16,147.62,548.09,153.45Z"/><path class="cls-17" d="M566.82,177.06,543.9,241.49c-2.07,5.82,7,9,9,3.21l22.92-64.42C577.92,174.45,568.89,171.24,566.82,177.06Z"/><path class="cls-17" d="M518.14,165.18l-19.06,53.58c-2.07,5.83,7,9,9,3.21l19.06-53.58C529.24,162.56,520.21,159.35,518.14,165.18Z"/><polygon class="cls-12" points="507.95 178 538.6 211.22 586.45 203.23 556.39 276.96 489.33 253.06 507.95 178"/><path class="cls-13" d="M543.7,222c-9-6.73-24.67-2.39-30.12,6.77a15.07,15.07,0,0,0-2.07,4.05c-3,9.28,3.71,17.68,12.34,20.41,8.25,2.61,19.34-.64,24.23-7.93C553.31,237.52,551,227.49,543.7,222Z"/><path class="cls-17" d="M405.68,289.29c-3.29,22,20,40.11,39,43.79,17.07,2.72,36.38-2.42,45.39-17.7-6.63-3.58-16.56-3-24-3.84a133,133,0,0,1-28-6.24c-8.14-2.74-27.29-8.61-32-15.9"/><path class="cls-10" d="M415.66,281.08c-6.57.68-17.4,7.38-15,15.29,1.52,5.11,6.8,4.48,11,6.1,6.69,1.9,4.78,2.63,7.76,8.58,5.86,12.29,15.5-.7,24.26,4.34,4,2.41,5.41,7.91,10.4,9.76,5.4,2,7-.57,11.68-2.21,9.32-2.88,13,7.95,22.3,6.76,12.46-2,5-17.69-1.38-22.06-10.68-7.29-23.54-8.39-35.78-10.17-10.28-1.22-15.62-4.86-23.94-11.47-3.48-2.69-9.1-6.84-13.53-4.7"/><path class="cls-3" d="M403.31,296.29a24,24,0,0,1,13.74-5c3.57-.14,7.11.77,10.67.45,5.09-.44,8.08-3.83,10.71-7.9.44-.68-.64-1.31-1.08-.64-2,3.05-4.18,6.05-7.85,7-3.05.8-6.25.05-9.32-.12a25.81,25.81,0,0,0-17.5,5.07c-.64.48,0,1.56.63,1.08Z"/><path class="cls-3" d="M423.67,311.71c7.54-6.49,13.9-13.46,16.85-23.15.24-.77-1-1.1-1.2-.33-2.89,9.46-9.19,16.28-16.54,22.6-.61.52.28,1.41.89.88Z"/><path class="cls-3" d="M454.61,319.76c2.3-8.66,2.27-17.39,2.34-26.28a.63.63,0,0,0-1.25,0c-.07,8.79,0,17.38-2.3,25.94a.63.63,0,0,0,1.21.34Z"/><path class="cls-3" d="M486.39,324.54c2-12.11-8.73-20.68-13.08-31-.31-.74-1.38-.1-1.07.63,4.14,9.81,14.81,18.44,12.95,30-.13.79,1.08,1.13,1.2.34Z"/><path class="cls-13" d="M484.53,300.69c-6.09-2.1-13.07-2.06-19.4-2.79a92.65,92.65,0,0,1-28.3-8.33c-7-3.29-15.75-17.84-24.64-14.08a6.5,6.5,0,0,0-4,4.49c-9.49,9.54,16,22.44,22.62,25.64a122.7,122.7,0,0,0,22.75,8.44c10.86,2.79,24.79,5.6,35.75,1.41C499.62,311.55,490.93,302.9,484.53,300.69Z"/><path class="cls-17" d="M403.39,278.65s28.82-40.89,65.22-29.91,30.92,61.69,30.92,61.69-58,4.55-93.79-31.11"/><path class="cls-18" d="M455.93,250.14a24.83,24.83,0,0,0-4.74,1.9c-1.47.73-3.3,1.7-3.49,3.5-.25,2.46,3.26,2.45,4.7,1.85,1.93-.8,3-2.94,4.55-4a1.65,1.65,0,0,0,.62-.86A1.55,1.55,0,0,0,455.93,250.14Z"/><path class="cls-18" d="M466.72,254.79a1.58,1.58,0,0,0-2.19-1.38,1.22,1.22,0,0,0-1.49.38,8.84,8.84,0,0,0-1.81,4.14c-.26,1.29-.49,3,.52,4.07,1.35,1.39,3.27,0,4.06-1.27C466.84,259.1,466.8,256.65,466.72,254.79Z"/><path class="cls-18" d="M478.88,259.9a11.07,11.07,0,0,0-3.54-5.1,1.56,1.56,0,0,0-2.17,0l0,0a1.42,1.42,0,0,0-.95,1.35,13.34,13.34,0,0,0,.93,4.75c.55,1.54,1.39,3.44,3.25,3.56C478.67,264.59,479.33,261.55,478.88,259.9Z"/><path class="cls-10" d="M514.62,389.83v44.42c0,4.43,6.87,4.43,6.87,0V389.83C521.49,385.4,514.62,385.4,514.62,389.83Z"/><path class="cls-13" d="M531.22,359.12c-9-6.73-24.67-2.39-30.12,6.77a15.07,15.07,0,0,0-2.07,4.05c-3,9.28,3.71,17.68,12.34,20.41,8.25,2.61,19.34-.64,24.23-7.93C540.83,374.63,538.55,364.6,531.22,359.12Z"/><path class="cls-12" d="M537.75,370.82H497.91c-4.43,0-4.43,6.87,0,6.87h39.84C542.18,377.69,542.18,370.82,537.75,370.82Z"/><path class="cls-13" d="M632.82,175.79s11.86,133.44,29.9,133.68,87.92-47.16,78.89-57.74S650,170.43,632.82,175.79Z"/><path class="cls-17" d="M741.61,251.73c-3.36-3.95-17-16.26-33.6-29.87-3.47,7.06-11.13,12.16-19.66,10.51-13-2.52-19-17.76-9.63-27.9a8.67,8.67,0,0,1,3.89-2.45c-12.12-9-24-17-33.47-21.77a13.78,13.78,0,0,1-2,4.27,17.17,17.17,0,0,1-12.7,7.22c1.49,13.88,4,34.91,7.32,55.38,4.82-1.21,10.06-1.16,14,2.08a16.09,16.09,0,0,1,5.39,15.33c-1.39,7.7-6.43,13.57-12.84,15.82,4.15,16.92,9,29,14.44,29.12C680.76,309.71,750.64,262.31,741.61,251.73Zm-94.44-25.88c-3.73-2.72-5.67-7.46-4-11.91a11,11,0,0,1,2.85-4.11,10.69,10.69,0,0,1,9.63-5.24c4.75,0,9.53,4.31,9.89,9.09a12.2,12.2,0,0,1,0,1.71,9.38,9.38,0,0,1-1.31,5.14,13,13,0,0,1-3.6,4.61C656.79,228.23,651.28,228.86,647.17,225.85Zm51.56,36.61a11.92,11.92,0,0,1-1.78,3.83,13.89,13.89,0,0,1-6.64,4.93c-4.55,2.13-9.81,2.43-14.23-.38-4.12-2.61-5.48-7.47-5.43-12,.1-8,7.22-18.07,16.26-15.94C695.37,244.84,703.27,253.89,698.73,262.46Z"/><path class="cls-19" d="M734.26,244.47c-13.78,4-22.48,18.55-33.56,27.68A61.24,61.24,0,0,1,676,284.29c-9.19,2.31-17.42,4.07-23.33,11,3.09,8.67,6.47,14.12,10.1,14.17,18,.24,87.92-47.16,78.89-57.74C740.4,250.3,737.82,247.76,734.26,244.47Z"/><path class="cls-12" d="M648.89,217.92c-3,1.31-1,6,2,4.74S651.94,216.61,648.89,217.92Z"/><path class="cls-12" d="M651.53,207.82c-3,1.31-1,6,2,4.73S654.59,206.51,651.53,207.82Z"/><path class="cls-12" d="M657.25,215.33c-3.06,1.31-1,6,2,4.74S660.3,214,657.25,215.33Z"/><path class="cls-12" d="M683.71,222.43c-3.05,1.31-1,6,2,4.73S686.76,221.12,683.71,222.43Z"/><path class="cls-12" d="M683.89,208.9c-3,1.31-1,6,2,4.73S686.94,207.59,683.89,208.9Z"/><path class="cls-12" d="M695.43,218.4c-3,1.31-1,6,2,4.73S698.49,217.09,695.43,218.4Z"/><path class="cls-12" d="M679.2,260.73c-3.05,1.31-1,6,2,4.74S682.26,259.42,679.2,260.73Z"/><path class="cls-12" d="M680.16,247.86c-3,1.31-1,6,2,4.74S683.22,246.56,680.16,247.86Z"/><path class="cls-12" d="M691.77,256.34c-3,1.31-1,6.05,2,4.74S694.82,255,691.77,256.34Z"/><path class="cls-12" d="M651.06,264.83c-3,1.3-1,6,2,4.73S654.11,263.52,651.06,264.83Z"/><path class="cls-12" d="M648.47,253c-3.05,1.31-1,6,2,4.74S651.52,251.67,648.47,253Z"/><path class="cls-12" d="M637.52,180.94c-3,1.31-1,6,2,4.73S640.57,179.63,637.52,180.94Z"/><path class="cls-20" d="M657.74,346.11c-.82-.91-1.6-1.76-2.26-2.53-1.46-1.69-2.85-3.43-4.21-5.2-1.18-1.93-2.38-3.86-3.58-5.78a170.65,170.65,0,0,0-13-17.32,71.37,71.37,0,0,0-9.08-11.61c-.9-1.27-1.79-2.55-2.64-3.86-5.42-8.39-11.84-21.15-22.56-23.35-8.22-1.69-17.21,6.82-23.56,10.73-5.67,3.5-11.32,7-16.87,10.73-4.55,3-9.85,5.77-12.92,10.43-4.91,7.44,3.26,16.81,7.38,22.48.55.76,1.12,1.5,1.69,2.25,2.32,3.7,4.9,7.27,7.2,10.87,7.08,11.06,15.77,21,23.69,31.41,6.8,9,13.26,30.15,27.88,27.19,8.2-1.66,15.52-8.32,21.84-13.35,1.61-1.28,3.26-2.52,4.91-3.74,3.27-1.9,6.41-4,9.44-6.17,2.15-1.52,4.48-3.22,6.68-5.11l.6-.32c3.93-2,7.9-4.55,9.3-8.94C669.91,357.86,663,351.18,657.74,346.11Z"/><path class="cls-21" d="M581.52,314.05c-2.17-2.76-4.62-5.36-6.59-8.26a3,3,0,0,0-4.22-.48,77.8,77.8,0,0,1-14.24,9.43,3.06,3.06,0,0,0-1.17,4.63c2.19,3,4.82,7.34,8.15,9.92.86.95,1.71,1.91,2.54,2.91a3,3,0,0,0,3.53.89c3.13-1.8,6.47-3.22,9.63-5,2.54-1.41,6.88-3.52,6.67-7C585.67,318.58,583,315.93,581.52,314.05Z"/><path class="cls-21" d="M608.73,295c-2.17-2.76-4.62-5.36-6.59-8.26a3,3,0,0,0-4.22-.48,78.12,78.12,0,0,1-14.23,9.44,3,3,0,0,0-1.17,4.62c2.18,3,4.82,7.34,8.14,9.92.86,1,1.72,1.91,2.55,2.91a3,3,0,0,0,3.52.89c3.13-1.8,6.47-3.22,9.63-5,2.55-1.4,6.88-3.51,6.67-7C612.88,299.5,610.2,296.86,608.73,295Z"/><path class="cls-21" d="M601.5,339.88c-2.17-2.76-4.61-5.36-6.59-8.26a3,3,0,0,0-4.22-.48,78.12,78.12,0,0,1-14.23,9.44,3,3,0,0,0-1.17,4.62c2.18,3,4.82,7.34,8.14,9.92.86.95,1.72,1.91,2.55,2.91a3,3,0,0,0,3.52.89c3.13-1.8,6.47-3.22,9.64-5,2.54-1.4,6.87-3.51,6.66-7C605.65,344.41,603,341.77,601.5,339.88Z"/><path class="cls-21" d="M628.71,320.81c-2.16-2.76-4.61-5.36-6.59-8.27a3,3,0,0,0-4.21-.48,78.19,78.19,0,0,1-14.24,9.44,3.05,3.05,0,0,0-1.17,4.63c2.18,3,4.82,7.33,8.15,9.91.85.95,1.71,1.92,2.54,2.91a3,3,0,0,0,3.52.89c3.13-1.79,6.47-3.21,9.64-5,2.54-1.4,6.87-3.51,6.67-7C632.86,325.33,630.19,322.69,628.71,320.81Z"/><path class="cls-21" d="M622.2,367.4c-2.17-2.76-4.61-5.36-6.59-8.27a3,3,0,0,0-4.22-.47,78.59,78.59,0,0,1-14.23,9.43,3.05,3.05,0,0,0-1.17,4.63c2.18,3,4.82,7.34,8.14,9.91.86,1,1.72,1.92,2.55,2.92a3,3,0,0,0,3.52.89c3.13-1.8,6.47-3.22,9.64-5,2.54-1.4,6.87-3.51,6.66-7C626.35,371.93,623.68,369.28,622.2,367.4Z"/><path class="cls-21" d="M649.41,348.32c-2.16-2.76-4.61-5.36-6.59-8.26a3,3,0,0,0-4.21-.48A77.8,77.8,0,0,1,624.37,349a3.05,3.05,0,0,0-1.17,4.63c2.18,3,4.82,7.34,8.15,9.91.86,1,1.71,1.92,2.54,2.92a3,3,0,0,0,3.53.89c3.12-1.8,6.47-3.22,9.63-5,2.54-1.41,6.87-3.52,6.67-7C653.56,352.85,650.89,350.2,649.41,348.32Z"/><path class="cls-20" d="M566.66,313.61c.17,3.76.34,7.53.34,11.3a1.25,1.25,0,0,0,2.5,0c0-3.77-.17-7.54-.34-11.3-.07-1.61-2.57-1.61-2.5,0Z"/><path class="cls-20" d="M573.27,316.26a33.43,33.43,0,0,0,.28,6.71c.23,1.59,2.64.91,2.41-.66a30.6,30.6,0,0,1-.19-6.05c.09-1.6-2.41-1.6-2.5,0Z"/><path class="cls-20" d="M614.7,320a79.85,79.85,0,0,1-.5,11.67c-.18,1.59,2.32,1.58,2.5,0a79.85,79.85,0,0,0,.5-11.67c-.06-1.6-2.56-1.61-2.5,0Z"/><path class="cls-20" d="M621.31,322.66a47.5,47.5,0,0,1-.43,7.15c-.21,1.59,2.29,1.58,2.5,0a47.5,47.5,0,0,0,.43-7.15,1.25,1.25,0,0,0-2.5,0Z"/><path class="cls-20" d="M588.75,342c-.18,3.2-.2,6.41-.38,9.62-.09,1.61,2.41,1.6,2.5,0,.18-3.21.2-6.42.38-9.62.09-1.61-2.41-1.6-2.5,0Z"/><path class="cls-20" d="M596.53,291.41a149.65,149.65,0,0,0-.15,16c.08,1.6,2.58,1.61,2.5,0a149.65,149.65,0,0,1,.15-16c.09-1.61-2.41-1.61-2.5,0Z"/><path class="cls-20" d="M606.49,368a28,28,0,0,0-.78,9.12c.11,1.59,2.61,1.6,2.5,0a25.57,25.57,0,0,1,.69-8.45,1.25,1.25,0,0,0-2.41-.67Z"/><path class="cls-20" d="M613.11,370c-.09,2,.15,4,0,6-.07,1.6,2.43,1.6,2.5,0,.1-2-.14-4,0-6,.08-1.61-2.42-1.6-2.5,0Z"/><path class="cls-20" d="M637.79,345.69a44.73,44.73,0,0,0-1.44,13.38c.1,1.59,2.6,1.6,2.5,0a42,42,0,0,1,1.36-12.72c.37-1.56-2-2.23-2.42-.66Z"/><path class="cls-20" d="M643.68,350.15a17.85,17.85,0,0,0-1.32,7.84c.11,1.6,2.61,1.61,2.5,0a16.06,16.06,0,0,1,1.23-7.18c.59-1.5-1.83-2.15-2.41-.66Z"/><path class="cls-13" d="M601.09,37.16c-3.57,1-4.85,3.33-5.05,6a10,10,0,0,0-2.72-1c-3.14-.62-6.27.54-7.12,3.8-.94,3.58,2,7.21,4.76,9s6.65,1.93,9.85.86l.17,0,.17-.05a9.5,9.5,0,0,0,8.06-8.4C609.67,43.17,606.66,35.54,601.09,37.16Z"/><path class="cls-22" d="M586.86,44.53a5.54,5.54,0,0,0-.66,1.5c-.94,3.58,2,7.21,4.76,9s6.65,1.93,9.85.86l.17,0,.17-.05A10.08,10.08,0,0,0,607.5,52C600.48,54.19,592.44,52.35,586.86,44.53Z"/><path class="cls-23" d="M594.73,118.25c-27.18-3.93-21.47-43.19,4.51-44.7,23.1-1.47,34.71,29.36,12.68,40-5.09,2.33-11.21,5.38-16.59,5.32"/><path class="cls-24" d="M640.67,100.51c-20.08,4.71-34.36-21.21-17.36-34.91,15.06-11.89,46.55-5.95,38.85,18.22-2.23,6.44-14.44,19.56-21.87,16.8"/><path class="cls-10" d="M619.05,91.64c-24.67,7.3-39.27-28-15.29-40.48C626.59,39,646.35,69.51,628,86.93a18.81,18.81,0,0,1-11.32,5"/><path class="cls-25" d="M606.09,74.18c3.25-3.08,6.36-6.74,10.7-8.3,5.2-1.88,9.58.3,14.73-.43a7.7,7.7,0,0,0,2.8-1c-3.43-12-16.4-20.85-30.56-13.32-10.64,5.53-13.67,15.56-11.61,24.37C597,76.69,602.71,77.36,606.09,74.18Z"/><path class="cls-26" d="M584.6,117.53l79.22-42s26.75,52.21-10.19,71.56C608.23,170.82,584.6,117.53,584.6,117.53Z"/><path class="cls-27" d="M582.47,100.56c-2.76.82-1.49,5.09,1.26,4.27S585.22,99.75,582.47,100.56Z"/><path class="cls-27" d="M588.56,83.48c-2.76.81-1.49,5.09,1.26,4.27S591.31,82.66,588.56,83.48Z"/><path class="cls-27" d="M592.2,94.38c-2.76.81-1.49,5.08,1.26,4.27S595,93.56,592.2,94.38Z"/><path class="cls-27" d="M593.78,106.71c-2.75.81-1.49,5.08,1.27,4.27S596.54,105.89,593.78,106.71Z"/><path class="cls-27" d="M609.67,96.22c-2.75.82-1.49,5.09,1.27,4.27S612.43,95.4,609.67,96.22Z"/><path class="cls-27" d="M639.91,79.83c-2.75.81-1.48,5.09,1.27,4.27S642.67,79,639.91,79.83Z"/><path class="cls-27" d="M641.9,65.62c-2.76.81-1.49,5.08,1.26,4.27S644.65,64.8,641.9,65.62Z"/><path class="cls-27" d="M652.5,70.73c-2.76.82-1.49,5.09,1.26,4.27S655.25,69.92,652.5,70.73Z"/><path class="cls-27" d="M597.16,69.32l-.38.11a1.49,1.49,0,0,0,.85,2.85l.38-.12A1.48,1.48,0,0,0,597.16,69.32Z"/><path class="cls-27" d="M600.76,59.17a1.48,1.48,0,0,0,.85,2.84A1.48,1.48,0,0,0,600.76,59.17Z"/><path class="cls-27" d="M608.14,63.17A1.49,1.49,0,0,0,609,66,1.49,1.49,0,0,0,608.14,63.17Z"/><path class="cls-27" d="M610.49,53a1.49,1.49,0,0,0,.84,2.85A1.49,1.49,0,0,0,610.49,53Z"/><path class="cls-27" d="M620.22,58a1.48,1.48,0,0,0,.84,2.84A1.48,1.48,0,0,0,620.22,58Z"/><path class="cls-27" d="M628.33,58.85a1.48,1.48,0,0,0,.85,2.84A1.48,1.48,0,0,0,628.33,58.85Z"/><path class="cls-26" d="M535.07,102c-.71-5.32-1.54-16-7.93-12.13a2.12,2.12,0,0,0-.87,1A2.25,2.25,0,0,0,525.19,93c0,7.54,1.53,14.72,2.33,22.18.7,6.4.59,14.35,4.85,18.47.84.82,1.76-.62,2.79-.78C538.63,132.25,536.45,112.33,535.07,102Z"/><path class="cls-12" d="M511.14,104c-6.6-17.77-16.75-67.53,9.14-74.64,16.76-4.57,22.85,18.28,24.88,29.45,1.52,7.11,4.06,37.57,4.06,38.59a302.93,302.93,0,0,1-38.08,6.6"/><path class="cls-13" d="M523.24,87.58c-2.47-12-4.36-24.09-4-36.39.1-3.27-5-3.26-5.08,0-.4,12.74,1.59,25.31,4.15,37.74C519,92.14,523.89,90.78,523.24,87.58Z"/><path class="cls-13" d="M538,87.07c-2.47-12-4.35-24.09-4-36.39.1-3.27-5-3.26-5.08,0-.39,12.74,1.6,25.31,4.16,37.74C533.73,91.63,538.62,90.27,538,87.07Z"/><path class="cls-10" d="M467.3,69.76c-6.65,0-6.65,10.3,0,10.3S473.94,69.76,467.3,69.76Z"/><path class="cls-10" d="M453.56,204.4c-6.65,0-6.65,10.31,0,10.31S460.2,204.4,453.56,204.4Z"/><path class="cls-10" d="M615.68,175.55c-6.64,0-6.64,10.31,0,10.31S622.33,175.55,615.68,175.55Z"/><path class="cls-10" d="M599.19,236c-6.64,0-6.64,10.3,0,10.3S605.84,236,599.19,236Z"/><path class="cls-10" d="M525,308.82c-6.64,0-6.64,10.31,0,10.31S531.65,308.82,525,308.82Z"/><path class="cls-10" d="M476.91,411.87c-6.64,0-6.64,10.31,0,10.31S483.56,411.87,476.91,411.87Z"/><path class="cls-10" d="M573.09,409.12c-6.65,0-6.65,10.31,0,10.31S579.73,409.12,573.09,409.12Z"/><path class="cls-10" d="M705,330.81c-6.65,0-6.65,10.3,0,10.3S711.63,330.81,705,330.81Z"/><path class="cls-10" d="M711.86,148.07c-6.65,0-6.65,10.31,0,10.31S718.5,148.07,711.86,148.07Z"/><path class="cls-10" d="M393.1,91.74c-6.64,0-6.64,10.31,0,10.31S399.75,91.74,393.1,91.74Z"/><path class="cls-28" d="M408.39,341.69a10.4,10.4,0,0,0-3.27-3.56c-4.29-3-10.47-4.21-15-1.07a13.86,13.86,0,0,0-5.55,11.11,9.34,9.34,0,0,0,.52,5.94,10.52,10.52,0,0,0,7.88,6.36,14.52,14.52,0,0,0,15.85-3.94C412.89,351.82,411.83,345.82,408.39,341.69Z"/><path class="cls-28" d="M356.8,370.64a10.4,10.4,0,0,0-3.27-3.56c-4.29-3-10.47-4.21-15-1.07A13.86,13.86,0,0,0,333,377.12a9.26,9.26,0,0,0,.52,5.94,10.48,10.48,0,0,0,7.88,6.36,14.52,14.52,0,0,0,15.85-3.94C361.3,380.77,360.24,374.77,356.8,370.64Z"/><path class="cls-29" d="M341.9,441.32a25.13,25.13,0,0,1-12.62-7.8c-8.91-10.39.37-14.47,3.71-23.75,3-7.8-5.2-14.85,0-23,2.6-4.46,6.68-4.09,10-6.69,4.08-3.34,3-7.05,4.08-11.5,2.23-9.28,8.91-13.36,17.82-13.36,9.65.37,14.1-5.2,22.64-8.17,10.39-3.71,12.25,5.2,21.9,4.46,3.71,0,9.65-2.23,13-.75,4.82,1.86,4.08,5.94,7.05,9.28,4.82,4.83,10,4.08,9.28,12.62"/><path class="cls-30" d="M444.34,376.73c-26.73,18.19-45.66,32.29-68.67,46-9.28,5.94-18.56,11.88-28.21,17.07-5.56,3.34-6.31,3.34-8.16-3.71-1.49-5.57-.74-11.51-.37-17.07,2.22-26.73,15.21-52,42.68-59,20.41-5.19,40.83.37,57.16,13,1.86,1.12,3.71,2.6,5.57,3.71"/><path class="cls-31" d="M348.89,430a647.71,647.71,0,0,0,74.36-53.55c.62-.51-.27-1.39-.88-.88a646.5,646.5,0,0,1-74.11,53.35c-.68.42-.05,1.5.63,1.08Z"/><path class="cls-31" d="M358.3,411.69c9-7,19-12.73,28.45-19.2.66-.45,0-1.53-.63-1.08-9.53,6.53-19.57,12.29-28.71,19.4-.63.49.26,1.37.89.88Z"/><path class="cls-31" d="M354.21,400.93c12.09-9.53,24.07-19.2,36.62-28.11.65-.46,0-1.55-.63-1.08-12.64,9-24.7,18.71-36.87,28.31-.63.49.26,1.37.88.88Z"/><path class="cls-31" d="M390.46,387.29c4.57-3.06,9-6.35,13.36-9.65.64-.47,0-1.56-.63-1.07-4.39,3.29-8.79,6.58-13.36,9.65-.66.44,0,1.53.63,1.07Z"/></g></svg>